# File created by Blade
# Date/Time:  Tue Apr 07 21:36:59 2015
# Frame Rate: 120.000 fps
#------------------------------------------------------
:FULLY-SPECIFIED
:DEGREES
779
root -4.504810 33.842449 7.932760 554.696247 -175.439724 -541.397851
Spine -13.050266 -11.459188 7.039631
Head 4.140790 0.677441 -1.462948
LeftShoulder -22.186861 42.899821 13.558568
LeftArm 61.263971 -41.833090 -68.636285
LeftForeArm 5.835759 -0.000000 3.092201
LeftHand 10.342800 -0.000000 14.224448
LeftHandThumb1 -26.253704 0.000000 33.147579
RightShoulder -7.214608 -0.508909 -28.810142
RightArm 8.585583 16.605396 45.032465
RightForeArm -12.396373 -0.000000 12.807365
RightHand 11.970958 -0.000000 -13.793418
RightHandThumb1 -24.326973 -0.000000 -32.862282
LeftUpLeg -11.479644 5.397965 3.091069
LeftLeg 6.021892 -0.000000 -0.000000
LeftFoot 1.773916 9.199870 -19.894624
LeftToeBase -19.827430 -0.000000 0.000000
RightUpLeg -10.544073 5.810282 1.266261
RightLeg 3.291728 -0.000000 -0.000000
RightFoot 2.926357 -16.523651 4.156484
RightToeBase -20.110087 -0.000000 0.000000
780
root -4.461488 33.788908 7.875161 554.754248 -176.351888 -541.284461
Spine -13.003651 -11.889844 6.884431
Head 3.917802 0.458426 -1.090792
LeftShoulder -21.987427 42.653901 13.964055
LeftArm 61.104654 -42.062248 -68.249013
LeftForeArm 6.092688 -0.000000 2.978539
LeftHand 10.145184 -0.000000 13.914409
LeftHandThumb1 -26.253704 0.000000 33.147579
RightShoulder -7.248887 -0.467924 -28.751895
RightArm 8.558229 16.857135 44.897281
RightForeArm -12.551012 -0.000000 12.913393
RightHand 11.652777 -0.000000 -13.790514
RightHandThumb1 -24.326973 -0.000000 -32.862282
LeftUpLeg -11.315890 4.903552 3.115204
LeftLeg 5.176580 -0.000000 -0.000000
LeftFoot 1.653874 8.721659 -20.265401
LeftToeBase -18.936883 -0.000000 0.000000
RightUpLeg -10.629932 5.516960 1.010397
RightLeg 3.498791 -0.000000 -0.000000
RightFoot 1.961189 -15.915793 4.546002
RightToeBase -19.921973 -0.000000 0.000000
781
root -4.421758 33.735940 7.811341 554.859513 -177.232196 -541.134364
Spine -12.966183 -12.216675 6.623178
Head 3.651692 0.110432 -0.606534
LeftShoulder -21.753445 42.583458 14.403906
LeftArm 61.058620 -42.278921 -67.854075
LeftForeArm 6.123580 -0.000000 2.907349
LeftHand 9.977416 -0.000000 13.672462
LeftHandThumb1 -26.253704 0.000000 33.147579
RightShoulder -7.402057 -0.484958 -28.705219
RightArm 8.551387 16.952488 44.843037
RightForeArm -12.879895 0.000000 12.886616
RightHand 11.849154 -0.000000 -13.838493
RightHandThumb1 -24.326973 -0.000000 -32.862282
LeftUpLeg -11.278903 4.481260 3.094214
LeftLeg 4.483515 -0.000000 -0.000000
LeftFoot 1.529355 8.149583 -20.626955
LeftToeBase -17.890941 -0.000000 0.000000
RightUpLeg -10.795134 5.406244 0.683189
RightLeg 3.730026 -0.000000 -0.000000
RightFoot 1.114981 -15.374532 4.822024
RightToeBase -19.519461 -0.000000 0.000000
782
root -4.387597 33.685589 7.736801 555.005720 -178.129257 -541.059309
Spine -12.946649 -12.539727 6.466056
Head 3.394687 -0.245666 -0.189092
LeftShoulder -21.478385 42.471256 14.839231
LeftArm 61.044033 -42.567261 -67.513955
LeftForeArm 6.293520 -0.000000 2.755718
LeftHand 9.855571 -0.000000 13.496099
LeftHandThumb1 -26.253704 0.000000 33.147579
RightShoulder -7.531721 -0.544408 -28.659753
RightArm 8.602747 17.054364 44.770349
RightForeArm -13.089255 0.000000 12.848358
RightHand 11.775057 -0.000000 -13.697308
RightHandThumb1 -24.326973 -0.000000 -32.862282
LeftUpLeg -11.409080 4.216690 3.132387
LeftLeg 4.008567 -0.000000 -0.000000
LeftFoot 1.367305 7.417720 -20.972946
LeftToeBase -16.905892 -0.000000 0.000000
RightUpLeg -11.027430 5.469181 0.415138
RightLeg 3.924310 -0.000000 -0.000000
RightFoot 0.400783 -15.132133 5.060106
RightToeBase -18.682182 -0.000000 0.000000
783
root -4.357168 33.639331 7.664184 555.158398 -179.035755 -541.104983
Spine -12.945280 -12.843302 6.478849
Head 3.177561 -0.561553 0.127067
LeftShoulder -21.264467 42.478922 15.126589
LeftArm 61.289651 -42.955383 -67.366840
LeftForeArm 6.515525 -0.000000 2.584426
LeftHand 9.676890 -0.000000 13.573105
LeftHandThumb1 -26.253704 0.000000 33.147579
RightShoulder -7.696917 -0.671899 -28.585597
RightArm 8.825075 17.023283 44.606066
RightForeArm -13.178208 -0.000000 12.719595
RightHand 11.466645 -0.000000 -13.733659
RightHandThumb1 -24.326973 -0.000000 -32.862282
LeftUpLeg -11.586227 4.001163 3.290533
LeftLeg 3.635005 -0.000000 -0.000000
LeftFoot 1.176790 6.619802 -21.335594
LeftToeBase -16.189969 -0.000000 0.000000
RightUpLeg -11.179244 5.803716 0.241109
RightLeg 3.878203 -0.000000 -0.000000
RightFoot -0.125665 -15.235339 5.250879
RightToeBase -17.657036 -0.000000 0.000000
784
root -4.337690 33.597734 7.588475 555.344544 -179.777589 -541.275379
Spine -12.948482 -12.962278 6.585270
Head 2.929724 -0.878154 0.394784
LeftShoulder -21.082359 42.472382 15.375519
LeftArm 61.527532 -43.345932 -67.206371
LeftForeArm 6.679422 -0.000000 2.431705
LeftHand 9.430570 -0.000000 13.594329
LeftHandThumb1 -26.253704 0.000000 33.147579
RightShoulder -7.809170 -0.717540 -28.608436
RightArm 8.906669 16.973528 44.535342
RightForeArm -13.341654 -0.000000 12.535599
RightHand 11.891505 -0.000000 -13.894047
RightHandThumb1 -24.326973 -0.000000 -32.862282
LeftUpLeg -11.785051 3.810020 3.576746
LeftLeg 3.281250 -0.000000 -0.000000
LeftFoot 0.910502 5.927758 -21.663670
LeftToeBase -15.418097 -0.000000 0.000000
RightUpLeg -11.433798 6.182525 0.204569
RightLeg 3.872245 -0.000000 -0.000000
RightFoot -0.524787 -15.377672 5.302349
RightToeBase -17.125036 -0.000000 0.000000
785
root -4.319641 33.559612 7.517315 555.487016 179.538614 -541.528952
Spine -12.921767 -13.047205 6.807910
Head 2.719140 -1.156510 0.546607
LeftShoulder -20.916441 42.571021 15.527457
LeftArm 61.761636 -43.782565 -67.050048
LeftForeArm 6.714244 -0.000000 2.291753
LeftHand 9.397363 -0.000000 13.801154
LeftHandThumb1 -26.253704 0.000000 33.147579
RightShoulder -7.839108 -0.738353 -28.687006
RightArm 8.931833 16.899765 44.448935
RightForeArm -13.348989 -0.000000 12.403002
RightHand 11.700461 -0.000000 -13.545023
RightHandThumb1 -24.326973 -0.000000 -32.862282
LeftUpLeg -11.931267 3.489173 3.960658
LeftLeg 2.954079 -0.000000 -0.000000
LeftFoot 0.568891 5.409834 -22.031588
LeftToeBase -14.742790 -0.000000 0.000000
RightUpLeg -11.646063 6.410155 0.297055
RightLeg 3.863948 -0.000000 -0.000000
RightFoot -0.927997 -15.462563 5.332923
RightToeBase -16.772511 -0.000000 0.000000
786
root -4.299049 33.527767 7.437346 555.643850 179.010663 -541.817139
Spine -12.835336 -12.961140 7.045366
Head 2.377006 -1.461498 0.645320
LeftShoulder -20.793267 42.316315 15.691891
LeftArm 61.700516 -44.047729 -66.614599
LeftForeArm 6.781725 0.000000 2.164720
LeftHand 9.146240 -0.000000 13.857918
LeftHandThumb1 -26.253704 0.000000 33.147579
RightShoulder -7.930001 -0.679035 -28.768562
RightArm 8.944775 16.874417 44.357896
RightForeArm -13.439794 -0.000000 12.283681
RightHand 11.765401 -0.000000 -13.519998
RightHandThumb1 -24.326973 -0.000000 -32.862282
LeftUpLeg -12.126590 3.162179 4.338854
LeftLeg 2.700565 -0.000000 -0.000000
LeftFoot 0.209599 5.119694 -22.260672
LeftToeBase -14.130961 -0.000000 0.000000
RightUpLeg -11.884746 6.759760 0.389581
RightLeg 3.826074 -0.000000 -0.000000
RightFoot -1.277906 -15.617501 5.403189
RightToeBase -16.480176 -0.000000 0.000000
787
root -4.279031 33.495324 7.365527 555.720030 178.607039 -542.141178
Spine -12.700094 -12.832324 7.277555
Head 2.153930 -1.688948 0.755114
LeftShoulder -20.689621 42.177791 15.871464
LeftArm 61.607492 -44.299497 -66.203451
LeftForeArm 6.712041 -0.000000 2.043066
LeftHand 9.072543 -0.000000 14.064125
LeftHandThumb1 -26.253704 0.000000 33.147579
RightShoulder -7.904097 -0.657518 -28.861518
RightArm 9.023862 16.808284 44.291746
RightForeArm -13.401891 -0.000000 11.991691
RightHand 11.918108 -0.000000 -13.440955
RightHandThumb1 -24.326973 -0.000000 -32.862282
LeftUpLeg -12.220845 2.835375 4.732416
LeftLeg 2.456873 -0.000000 -0.000000
LeftFoot -0.242532 4.996272 -22.363711
LeftToeBase -13.457227 -0.000000 0.000000
RightUpLeg -12.015297 7.009488 0.552147
RightLeg 3.754443 -0.000000 -0.000000
RightFoot -1.598517 -15.655154 5.384130
RightToeBase -15.605286 -0.000000 0.000000
788
root -4.258274 33.463856 7.296993 555.748136 178.273979 -542.483700
Spine -12.508858 -12.606713 7.509041
Head 1.930928 -1.954268 0.825280
LeftShoulder -20.587406 42.023332 16.034761
LeftArm 61.601629 -44.562134 -65.891709
LeftForeArm 6.738057 -0.000000 1.934383
LeftHand 9.060984 -0.000000 14.035522
LeftHandThumb1 -26.253704 0.000000 33.147579
RightShoulder -7.907633 -0.670031 -28.939942
RightArm 9.126811 16.723333 44.176363
RightForeArm -13.396959 -0.000000 11.698913
RightHand 12.000313 -0.000000 -13.334078
RightHandThumb1 -24.326973 -0.000000 -32.862282
LeftUpLeg -12.259836 2.561392 5.108015
LeftLeg 2.187626 -0.000000 -0.000000
LeftFoot -0.701702 5.002777 -22.287427
LeftToeBase -12.860066 -0.000000 0.000000
RightUpLeg -12.073628 7.192178 0.766814
RightLeg 3.632953 -0.000000 -0.000000
RightFoot -1.902181 -15.705064 5.349345
RightToeBase -14.363965 -0.000000 0.000000
789
root -4.230990 33.433182 7.226429 555.763030 177.970756 -542.735956
Spine -12.308769 -12.390924 7.638659
Head 1.741582 -2.211846 0.898874
LeftShoulder -20.514812 42.024870 16.193856
LeftArm 61.797527 -44.886512 -65.863312
LeftForeArm 6.799985 -0.000000 1.944896
LeftHand 9.064442 0.000000 13.894419
LeftHandThumb1 -26.253704 0.000000 33.147579
RightShoulder -7.874363 -0.587883 -29.063828
RightArm 9.126715 16.643980 44.113691
RightForeArm -13.378792 -0.000000 11.413032
RightHand 11.776594 -0.000000 -13.125244
RightHandThumb1 -24.326973 -0.000000 -32.862282
LeftUpLeg -12.327583 2.356217 5.340700
LeftLeg 1.970739 -0.000000 -0.000000
LeftFoot -1.136085 5.100674 -22.085948
LeftToeBase -12.325512 -0.000000 0.000000
RightUpLeg -12.092580 7.335021 0.902354
RightLeg 3.447280 -0.000000 -0.000000
RightFoot -2.234117 -15.850092 5.419330
RightToeBase -13.321864 -0.000000 0.000000
